<?xml version="1.0" encoding="utf-8"?>
<!-- Generator: Adobe Illustrator 16.0.0, SVG Export Plug-In . SVG Version: 6.00 Build 0)  -->
<!DOCTYPE svg PUBLIC "-//W3C//DTD SVG 1.1//EN" "http://www.w3.org/Graphics/SVG/1.1/DTD/svg11.dtd">
<svg version="1.1" id="Layer_1" xmlns="http://www.w3.org/2000/svg" xmlns:xlink="http://www.w3.org/1999/xlink" x="0px" y="0px"
	 width="6707.226px" height="4000px" viewBox="0 0 6707.226 4000" enable-background="new 0 0 6707.226 4000" xml:space="preserve">
<g>
	<g>
		<g>
			<path fill="#DC9AFE" d="M5039.075,3344.664C4686.458,3695.79,935.51,3870.985,754.388,3715.312
				c-181.121-155.673,578.458-635.783,284.688-635.783c-537.466-695.086-250.775-2226.794,0-2522.376s3456.887-53.805,4000-191.738
				s-236.473,1037.308,399.797,528.534S5391.692,2993.538,5039.075,3344.664z"/>
		</g>
	</g>
	<g>
		<g>
			<g>
				
					<ellipse transform="matrix(0.5922 -0.8058 0.8058 0.5922 -264.5815 3253.0381)" fill="none" cx="3081.802" cy="1887.933" rx="142.197" ry="197.814"/>
			</g>
		</g>
		<g>
			<g>
				<path fill="#F5AF41" d="M3548.404,1253.147c-468.537-344.411-1049.021-350.542-1296.589-13.714
					c-23.886,32.476-43.79,66.962-59.784,103.016c-150.514,338.287,36.579,819.161,459.92,1130.302
					c151.142,111.036,313.913,186.939,473.379,227.459c78.839,20.026,156.919,31.428,232.333,34.181
					c245.066,8.935,462.616-73.475,590.812-247.925c17.468-23.759,32.816-48.553,46.047-74.316
					C4169.349,2072.826,3983.819,1573.176,3548.404,1253.147z M2997.596,2002.533c-83.416-61.353-118.03-157.689-81.793-221.438
					c1.956-3.537,4.168-7.016,6.639-10.31c46.475-63.271,155.531-62.134,243.594,2.549
					c88.001,64.748,121.695,168.476,75.155,231.749c-12.281,16.722-28.92,28.899-48.386,36.627
					C3138.565,2063.342,3062.353,2050.121,2997.596,2002.533z"/>
			</g>
		</g>
		<g opacity="0.3">
			<g>
				<path fill="#6D184E" d="M3427.663,2614.39c-75.415-2.754-153.494-14.154-232.333-34.18
					c-159.465-40.521-322.237-116.425-473.378-227.461c-423.342-311.14-610.436-792.014-459.922-1130.3
					c0.53-1.194,1.1-2.371,1.637-3.56c-1.372,1.735-2.681,3.535-4.032,5.29c-16.419,25.084-30.611,51.236-42.604,78.27
					c-150.514,338.286,36.58,819.161,459.922,1130.3c151.141,111.036,313.913,186.939,473.378,227.461
					c78.839,20.025,156.918,31.426,232.333,34.18c239.735,8.74,453.082-69.989,582.265-236.726
					c-2.227,3.383-4.497,6.744-6.787,10.098c13.493-19.558,25.667-39.749,36.382-60.613c4.264-8.276,8.248-16.674,12.084-25.135
					C3877.103,2545.801,3665.326,2623.055,3427.663,2614.39z"/>
			</g>
		</g>
		<g opacity="0.3">
			<g>
				
					<ellipse transform="matrix(0.8093 0.5874 -0.5874 0.8093 1681.5964 -1462.6299)" fill="#6D184E" cx="3093.218" cy="1858.309" rx="256.42" ry="195.317"/>
			</g>
		</g>
		<g>
			<g>
				<path fill="#6D184E" d="M3393.563,2758.749c-3.574,0-7.126-0.02-10.72-0.059c-249.795-2.642-514.336-97.422-744.893-266.88
					s-399.982-393.647-477.067-631.265c-77.986-240.386-52.449-465.942,71.903-635.132
					c124.351-169.184,331.865-261.054,584.707-258.217c249.798,2.642,514.339,97.421,744.893,266.88
					c230.557,169.458,399.983,393.647,477.07,631.264c77.983,240.386,52.446,465.947-71.906,635.132
					C3844.968,2667.255,3641.403,2758.739,3393.563,2758.749z M2806.804,1014.433c-232.439,0-422.469,84.648-535.911,238.989
					c-239.423,325.747-62.197,864.189,395.066,1200.283c457.268,336.089,1024.064,344.507,1263.486,18.76
					c239.424-325.747,62.199-864.189-395.066-1200.283c-222.638-163.643-477.409-255.161-717.383-257.695
					C2813.596,1014.447,2810.188,1014.433,2806.804,1014.433z M3136.658,2075.087c-49.618,0-104.479-17.808-153.075-53.525
					c-46.532-34.199-80.815-79.716-96.53-128.154c-16.611-51.206-10.823-99.727,16.304-136.631
					c54.153-73.681,178.264-74.79,276.662-2.475c98.396,72.319,134.385,191.103,80.228,264.79l0,0
					C3232.836,2056.381,3187.502,2075.087,3136.658,2075.087z M3026.511,1747.411c-35.723,0-66.665,12.363-85.049,37.374
					c-17.864,24.301-21.211,57.695-9.424,94.028c12.683,39.097,40.935,76.26,79.554,104.644
					c77.385,56.88,171.836,60.293,210.549,7.627c38.713-52.671,7.253-141.797-70.129-198.677
					C3111.374,1762.539,3066.02,1747.411,3026.511,1747.411z M3241.193,2005.087h0.051H3241.193z"/>
			</g>
		</g>
		<g>
			<g>
				<path fill="none" d="M3421.255,1784.987c-119.372-18.606-47.46-235.287-165.671-200.136s-136.552,15.99-233.464-94.367
					c-94.303-107.389-143.919,19.92-146.521,26.85c-37.114,128.021,35.926,296.232,187.814,407.871
					c180.83,132.911,404.872,135.281,500.415,5.292C3603.097,1820.739,3540.628,1803.593,3421.255,1784.987z"/>
			</g>
		</g>
		<g>
			<g>
				<g>
					<path fill="#FF33BB" d="M3558.701,1229.253c-225.877-166.023-477.093-255.321-706.335-267.59l0.115-0.099
						c-591.769-78.136-728.16,386.982-617.81,365.042c18.405-3.662,34.186-4.453,47.792-3.311
						c-1.379,6.501-2.766,12.994-3.979,19.746c-55.354,309.102,277.637,367.752,151.43,566.048
						c-126.213,198.299,34.546,296.955,163.083,211.603l0.894-0.591c57.256-37.396,135.345-14.712,164.615,47.092
						c14.484,30.584,25.966,67.4,24.662,105.842c-3.982,117.426-25.783,214.6,133.854,211.148
						c47.085-1.018,67.911-57.43,55.715-103.242c-27.593-103.626,107.567-128.277,160.055-59.074
						c12.506,16.489,21.575,33.853,25.052,50.338c5.459,49.62-2.037,106.687-23.559,160.52
						c-52.565,131.513-124.632,416.649,87.737,439.764c212.364,23.113,16.095-461.566,177.012-456.352
						c160.911,5.208,177.855,85.244,327.589-24.468c149.74-109.712,228.556-183.125,292.293-149.737
						c63.738,33.395,64.451-219.205,64.451-219.205C4080.763,1818.501,3890.465,1473.101,3558.701,1229.253z M3563.828,1930.496
						c-95.544,129.987-319.583,127.617-500.417-5.293c-151.888-111.64-224.926-279.85-187.814-407.87
						c2.605-6.931,52.222-134.238,146.523-26.851c96.91,110.358,115.25,129.519,233.462,94.37
						c118.212-35.152,46.304,181.53,165.671,200.136C3540.627,1803.594,3603.095,1820.74,3563.828,1930.496z"/>
				</g>
			</g>
		</g>
		<g opacity="0.3">
			<g>
				<g>
					<path fill="#6D184E" d="M2609.736,1554.507c1.707,10.303,7.322,19.324,15.812,25.403c6.711,4.805,14.582,7.317,22.671,7.317
						c2.147,0,4.312-0.178,6.472-0.535c10.304-1.707,19.324-7.319,25.403-15.811c6.081-8.491,8.488-18.84,6.784-29.143
						l-15.908-96.094c-1.706-10.303-7.319-19.324-15.81-25.403c-8.492-6.082-18.839-8.481-29.145-6.785c0,0,0,0-0.002,0
						c-21.265,3.523-35.703,23.691-32.183,44.956L2609.736,1554.507z"/>
				</g>
			</g>
			<g>
				<g>
					<path fill="#6D184E" d="M3070.743,1371.572c0.291,0,0.584-0.002,0.876-0.01c10.439-0.229,20.166-4.509,27.388-12.051
						c14.904-15.574,14.362-40.369-1.209-55.278l-70.363-67.351c-7.544-7.217-17.407-11.106-27.888-10.842
						c-10.44,0.229-20.166,4.509-27.388,12.051c-14.905,15.574-14.363,40.371,1.209,55.278l70.363,67.351
						C3051.064,1367.737,3060.626,1371.572,3070.743,1371.572z"/>
				</g>
			</g>
			<g>
				<g>
					<path fill="#6D184E" d="M3542.239,1739.597c3.41-9.871,2.771-20.476-1.797-29.866l-42.612-87.588
						c-9.432-19.385-32.876-27.478-52.258-18.052c-19.386,9.431-27.483,32.874-18.053,52.258l42.612,87.585
						c4.569,9.392,12.521,16.44,22.391,19.851c4.185,1.443,8.496,2.161,12.796,2.161c5.847,0,11.662-1.328,17.072-3.96
						C3531.782,1757.419,3538.831,1749.468,3542.239,1739.597z"/>
				</g>
			</g>
			<g>
				<g>
					<path fill="#6D184E" d="M2853.619,1922.632c-21.504-1.904-40.518,13.938-42.467,35.405l-8.796,97.004
						c-0.942,10.4,2.22,20.545,8.906,28.565c6.687,8.022,16.097,12.958,26.497,13.901c1.205,0.109,2.404,0.163,3.601,0.163
						c9.118,0,17.874-3.159,24.967-9.069c8.02-6.688,12.955-16.1,13.897-26.5l8.797-97.004c0.942-10.4-2.219-20.544-8.906-28.564
						C2873.429,1928.511,2864.019,1923.574,2853.619,1922.632z"/>
				</g>
			</g>
			<g>
				<g>
					<path fill="#6D184E" d="M2632.654,1782.646l-82.464,51.833c-18.251,11.472-23.767,35.654-12.295,53.904
						c7.42,11.804,20.152,18.279,33.162,18.279c7.104,0,14.295-1.934,20.742-5.984l82.466-51.833
						c18.249-11.472,23.765-35.652,12.295-53.906C2675.091,1776.694,2650.911,1771.174,2632.654,1782.646z"/>
				</g>
			</g>
			<g>
				<g>
					<path fill="#6D184E" d="M3422.285,2322.248c-11.475-18.256-35.653-23.764-53.903-12.295l-82.466,51.834
						c-18.25,11.473-23.765,35.652-12.293,53.906c7.417,11.802,20.154,18.279,33.162,18.279c7.107,0,14.295-1.934,20.742-5.986
						l82.467-51.836c18.249-11.471,23.764-35.65,12.294-53.902H3422.285z"/>
				</g>
			</g>
			<g>
				<g>
					<path fill="#6D184E" d="M3588.875,2061.238c-3.826-9.715-11.209-17.361-20.784-21.523c-9.575-4.168-20.2-4.352-29.919-0.523
						c-9.715,3.826-17.361,11.207-21.523,20.784c-4.165,9.575-4.351,20.2-0.522,29.915l35.693,90.629
						c3.825,9.715,11.208,17.361,20.783,21.523c5,2.176,10.286,3.265,15.579,3.265c4.844,0,9.695-0.913,14.336-2.741
						c9.717-3.826,17.363-11.207,21.528-20.784c4.165-9.575,4.351-20.2,0.522-29.915L3588.875,2061.238z"/>
				</g>
			</g>
			<g>
				<g>
					<path fill="#6D184E" d="M3296.128,1422.122l93.577,27.031c3.599,1.04,7.264,1.555,10.905,1.555
						c6.52,0,12.968-1.648,18.831-4.883c9.144-5.044,15.773-13.347,18.674-23.381c5.979-20.71-6.003-42.427-26.709-48.408
						l-93.576-27.034c-20.703-5.967-42.424,6.001-48.408,26.709h-0.003C3263.438,1394.421,3275.418,1416.138,3296.128,1422.122z"/>
				</g>
			</g>
			<g>
				<g>
					<path fill="#6D184E" d="M3763.668,1850.847l-93.577-27.034c-20.701-5.972-42.427,6.003-48.408,26.709
						c-2.899,10.032-1.719,20.593,3.325,29.736c5.047,9.143,13.35,15.774,23.382,18.674l93.579,27.034
						c3.608,1.042,7.248,1.538,10.829,1.538c16.968,0,32.638-11.15,37.579-28.25
						C3796.355,1878.545,3784.373,1856.829,3763.668,1850.847z"/>
				</g>
			</g>
			<g>
				<g>
					<path fill="#6D184E" d="M3937.273,2212.178c-7.09-7.666-16.741-12.111-27.176-12.52c-10.451-0.383-20.402,3.273-28.068,10.364
						l-71.509,66.13c-7.668,7.09-12.117,16.74-12.522,27.178c-0.407,10.435,3.271,20.402,10.364,28.068
						c7.091,7.666,16.74,12.115,27.175,12.522c0.523,0.02,1.043,0.029,1.562,0.029c9.864,0,19.224-3.657,26.507-10.394
						l71.512-66.133C3950.943,2252.788,3951.912,2228.006,3937.273,2212.178z"/>
				</g>
			</g>
			<g>
				<g>
					<path fill="#6D184E" d="M3629.295,1678.147c6.836,5.122,14.969,7.815,23.361,7.815c1.866,0,3.746-0.134,5.625-0.403
						l96.42-13.811c10.336-1.479,19.479-6.897,25.741-15.254c6.263-8.357,8.896-18.65,7.414-28.987
						c-1.479-10.337-6.896-19.48-15.254-25.742c-8.354-6.26-18.649-8.892-28.985-7.415l-96.419,13.811
						c-21.341,3.057-36.214,22.905-33.157,44.243C3615.521,1662.742,3620.938,1671.885,3629.295,1678.147z"/>
				</g>
			</g>
			<g>
				<g>
					<path fill="#6D184E" d="M3061.688,2082.305l-70.015,67.713c-15.493,14.987-15.908,39.785-0.925,55.277
						c7.26,7.508,17.009,11.738,27.45,11.914c0.223,0.003,0.447,0.006,0.67,0.006c10.192,0,19.816-3.89,27.163-10.994l70.017-67.713
						c7.505-7.26,11.736-17.009,11.909-27.448c0.174-10.442-3.729-20.325-10.988-27.829
						C3101.988,2067.736,3077.19,2067.319,3061.688,2082.305z"/>
				</g>
			</g>
			<g>
				<g>
					<path fill="#6D184E" d="M2723.919,1174.216c-12.363-17.654-36.792-21.96-54.448-9.6c-17.659,12.363-21.965,36.79-9.6,54.448
						l55.87,79.788c7.595,10.85,19.743,16.658,32.079,16.658c7.741,0,15.56-2.29,22.368-7.058
						c17.659-12.363,21.965-36.79,9.6-54.448L2723.919,1174.216z"/>
				</g>
			</g>
		</g>
		<g>
			<g>
				<path fill="#FF5CC9" d="M2592.242,1086.663c-1.34,13.412-7.518,25.712-15.766,36.372
					c-66.915,86.483,16.375,282.736-93.427,292.251c-110.753,9.598-103.091-239.783-29.867-320.828
					C2545.658,992.106,2598.405,1024.969,2592.242,1086.663z"/>
			</g>
		</g>
		<g>
			<g>
				<path fill="#FF5CC9" d="M3830.018,1922.837c0,0,6.562,141.478-142.429,219.167c-148.99,77.689,136.659,126.37,220.183-26.201
					C3991.296,1963.231,3847.786,1836.292,3830.018,1922.837z"/>
			</g>
		</g>
		<g opacity="0.5">
			<g>
				<path fill="#FFFFFF" d="M4093.381,2117.72c-2.636-304.224-192.901-649.631-524.692-893.495
					c-41.385-30.429-83.669-58.298-126.465-83.486c-7.871-4.647-15.765-9.179-23.672-13.651c0.008-1.086,0.035-2.171,0.004-3.258
					c-23.991-12.542-48.193-24.219-72.525-35.104c-75.895-37.426-152.838-67.017-229.301-88.675
					c-86.178-24.505-171.694-38.921-254.389-43.361l0.124-0.129c-187.334-24.733-329.015,5.016-431.724,56.478
					c90.618-22.926,200.176-30.822,330.864-13.57l-0.126,0.066c103.432,5.515,211.061,25.935,319.075,61.214
					c7.202,2.344,14.405,4.758,21.61,7.235c-11.78,54.342,29.589,115.668,102.271,144.972
					c65.059,26.226,135.589,18.869,177.403-14.152c11.633,6.966,23.234,14.074,34.78,21.402
					c30.535,19.354,60.652,39.925,90.415,61.774c350.192,257.444,551.101,622,553.849,943.122c0,0-0.191,52.867-6.297,108.404
					C4092.871,2296.906,4093.381,2117.72,4093.381,2117.72z"/>
			</g>
		</g>
		<g>
			<g>
				<path fill="#6D184E" d="M3236.177,2996.928c-5.403,0-10.975-0.312-16.715-0.938c-61.008-6.641-105.957-33.33-133.599-79.331
					c-72.717-121.021,1.873-331.182,26.465-392.71c19.264-48.188,27.112-100.664,22.146-147.925
					c-2.776-12.041-9.856-25.801-20.522-39.868c-22.972-30.288-67.908-36.226-95.467-22.749
					c-22.727,11.104-30.644,32.354-22.9,61.45c9.368,35.176,2.679,74.858-17.038,101.099
					c-15.052,20.024-36.717,31.338-61.011,31.865c-59.92,1.255-101.658-11.06-127.63-37.754
					c-38.029-39.102-35.017-100.195-31.823-164.878c0.529-10.752,1.075-21.758,1.452-32.954
					c1.001-29.482-6.538-61.421-22.401-94.927c-11.141-23.521-32.068-41.113-57.42-48.262c-24.969-7.041-51.541-3.096-72.889,10.85
					l-0.637,0.42c-71.887,47.734-157.229,46.475-207.654-2.983c-54.712-53.662-50.439-143.735,11.431-240.938
					c53.34-83.809,14.021-134.492-45.497-211.216c-60.921-78.53-136.482-175.928-110.714-337.686
					c-4.689,0.552-9.517,1.318-14.468,2.305c-21.247,4.229-40.039-2.793-51.56-19.248c-22.671-32.388-11.736-95.45,27.854-160.654
					c26.663-43.912,89.954-126.001,214.285-182.437c119.528-54.258,262.764-70.859,425.715-49.341
					c0.149,0.02,0.301,0.039,0.449,0.063c241.875,13.486,496.293,110.034,716.675,272.017l0,0
					c326.81,240.205,531.546,589.79,534.31,912.329c-0.005,2.295-0.203,50.474-5.767,102.705
					c-10.848,101.851-31.937,126.792-49.1,137.144c-13.54,8.169-29.235,8.34-44.204,0.503
					c-40.942-21.47-102.441,24.639-204.312,100.996c-19.888,14.907-40.451,30.322-63.032,46.865
					c-108.736,79.678-157.119,66.685-224.082,48.706c-31.446-8.447-67.092-18.022-118.247-19.678
					c-13.716-0.43-20.153,4.336-23.815,7.964c-25.262,25.054-23.289,106.553-21.551,178.452
					c2.356,97.417,4.795,198.149-46.486,245.283C3288,2988.397,3264.426,2996.928,3236.177,2996.928z M3050.896,2259.232
					c36.481,0,75.317,14.829,100.737,48.35c15.391,20.293,25.264,40.391,29.348,59.741c0.161,0.757,0.286,1.524,0.369,2.295
					c6.069,55.156-2.847,116.196-25.105,171.88c-44.343,110.942-78.767,269.385-29.844,350.807
					c19.896,33.109,52.012,51.649,98.179,56.674c21.909,2.373,38.211-1.65,49.837-12.329
					c35.485-32.617,33.215-126.494,31.211-209.321c-2.163-89.36-4.204-173.765,35.524-213.169
					c15.262-15.137,34.995-22.441,58.65-21.655c56.613,1.831,96.74,12.607,128.981,21.27
					c60.239,16.172,93.423,25.088,183.867-41.176c22.371-16.393,42.83-31.729,62.615-46.563
					c116.384-87.241,186.789-140.024,253.979-105.381c15.866-15.312,30.197-107.275,30.479-197.993
					c-2.64-307.661-199.984-642.798-515.027-874.355l0,0c-213.774-157.125-460.098-250.537-693.591-263.028
					c-1.409-0.078-2.788-0.273-4.129-0.591c-345.996-44.858-543.062,100.703-606.735,239.297
					c-22.749,49.512-17.09,76.582-13.465,79.824c-0.049-0.098,1.133,0.034,3.284-0.396c19.338-3.848,37.634-5.083,54.385-3.682
					c6.765,0.571,12.96,4.019,17.007,9.468c4.045,5.449,5.557,12.374,4.146,19.014l-0.145,0.669
					c-1.281,6.03-2.568,12.061-3.688,18.325c-26.189,146.23,40.889,232.7,100.07,308.989
					c61.322,79.043,119.241,153.706,48.027,265.591c-48.986,76.968-55.796,144.922-18.213,181.782
					c33.777,33.13,96.128,32.041,148.267-2.573l1.084-0.718c32.752-21.387,73.423-27.5,111.554-16.748
					c38.503,10.859,70.331,37.666,87.321,73.54c19.126,40.391,28.184,79.678,26.927,116.768c-0.389,11.44-0.943,22.695-1.485,33.682
					c-2.784,56.465-5.192,105.225,18.489,129.57c16.318,16.772,46.663,24.434,92.71,23.447c9.888-0.21,17.812-4.463,24.225-12.993
					c11.156-14.844,14.83-39.165,9.146-60.518c-13.477-50.615,4.854-95.107,47.835-116.108
					C3013.278,2263.314,3031.765,2259.232,3050.896,2259.232z M3349.304,2049.643c-96.653,0-204.302-35.127-299.896-105.386
					c-156.378-114.941-237.191-293.208-196.521-433.505c0.168-0.586,0.358-1.163,0.573-1.733
					c4.619-12.295,30.352-74.131,83.446-83.829c33.944-6.206,68.584,10.518,102.982,49.688
					c94.209,107.285,104.059,118.487,208.957,87.31c25.372-7.548,47.09-6.181,64.546,4.062
					c30.776,18.057,39.766,58.125,48.46,96.875c12.825,57.173,23.469,92.329,63.042,98.496
					c79.253,12.354,137.295,24.37,162.453,66.694c16.25,27.339,15.85,62.339-1.257,110.146c-0.771,2.158-1.854,4.195-3.211,6.041
					C3531.361,2014.594,3445.814,2049.643,3349.304,2049.643z M2898.044,1524.833c-34.624,121.499,39.011,278.149,179.372,381.318
					c168.714,123.999,376.445,129.526,465.306,13.086c10.769-31.289,12.065-53.144,3.976-66.757
					c-14.547-24.468-67.066-34.463-129.086-44.131c-74.243-11.572-90.231-82.836-101.904-134.873
					c-6.484-28.897-13.186-58.774-26.245-66.436c-5.698-3.345-14.828-3.179-27.136,0.479
					c-133.94,39.825-160.208,9.893-257.974-101.436c-15.586-17.749-38.489-38.159-58.948-34.37
					C2921.73,1476.035,2903.527,1510.751,2898.044,1524.833z M3563.827,1930.497h0.052H3563.827z"/>
			</g>
		</g>
		<g>
			<g>
				<path fill="none" d="M2955.009,2276.928l0.225,0.171c0,0,0.001-0.034,0.001-0.041
					C2955.16,2277.014,2955.084,2276.973,2955.009,2276.928z"/>
			</g>
		</g>
		<g opacity="0.3">
			<g>
				<g>
					<path fill="#6D184E" d="M3573.361,1856.108c-0.003-0.013-0.007-0.026-0.01-0.039
						C3573.354,1856.083,3573.358,1856.095,3573.361,1856.108z"/>
				</g>
			</g>
			<g>
				<g>
					<path fill="#6D184E" d="M3442.248,1788.365c-2.087-0.349-4.226-0.695-6.353-1.042
						C3438.023,1787.669,3440.161,1788.016,3442.248,1788.365z"/>
				</g>
			</g>
			<g>
				<g>
					<path fill="#6D184E" d="M3574.556,1862.054c-0.017-0.107-0.039-0.212-0.056-0.32
						C3574.517,1861.841,3574.539,1861.946,3574.556,1862.054z"/>
				</g>
			</g>
			<g>
				<g>
					<path fill="#6D184E" d="M3461.887,1791.828c-1.4-0.262-2.837-0.519-4.259-0.777
						C3459.051,1791.309,3460.485,1791.566,3461.887,1791.828z"/>
				</g>
			</g>
			<g>
				<g>
					<path fill="#6D184E" d="M3452.25,1790.08c-1.641-0.289-3.326-0.573-4.994-0.859
						C3448.925,1789.506,3450.607,1789.791,3452.25,1790.08z"/>
				</g>
			</g>
			<g>
				<g>
					<path fill="#6D184E" d="M3431.952,1786.678c-3.514-0.564-7.077-1.127-10.697-1.691
						C3424.875,1785.551,3428.438,1786.114,3431.952,1786.678z"/>
				</g>
			</g>
			<g>
				<g>
					<path fill="#6D184E" d="M3525.751,1808.862c-0.494-0.202-0.98-0.406-1.48-0.605
						C3524.771,1808.456,3525.257,1808.661,3525.751,1808.862z"/>
				</g>
			</g>
			<g>
				<g>
					<path fill="#6D184E" d="M3004.024,1472.229c-2.164-1.908-4.305-3.699-6.416-5.359
						C2999.72,1468.53,3001.86,1470.319,3004.024,1472.229z"/>
				</g>
			</g>
			<g>
				<g>
					<path fill="#6D184E" d="M3022.12,1490.483c-2.638-3.004-5.228-5.761-7.796-8.405
						C3016.893,1484.722,3019.482,1487.479,3022.12,1490.483z"/>
				</g>
			</g>
			<g>
				<g>
					<path fill="#6D184E" d="M3575.192,1882.059c0.017-0.239,0.033-0.478,0.05-0.716
						C3575.226,1881.581,3575.209,1881.819,3575.192,1882.059z"/>
				</g>
			</g>
			<g>
				<g>
					<path fill="#6D184E" d="M3575.261,1868.354c-0.013-0.172-0.03-0.342-0.043-0.514
						C3575.23,1868.013,3575.248,1868.183,3575.261,1868.354z"/>
				</g>
			</g>
			<g>
				<g>
					<path fill="#6D184E" d="M3531.887,1811.529c-0.365-0.169-0.723-0.344-1.094-0.512
						C3531.164,1811.186,3531.52,1811.36,3531.887,1811.529z"/>
				</g>
			</g>
			<g>
				<g>
					<path fill="#6D184E" d="M3496.905,1799.495c-0.904-0.236-1.823-0.47-2.743-0.702
						C3495.082,1799.025,3496,1799.259,3496.905,1799.495z"/>
				</g>
			</g>
			<g>
				<g>
					<path fill="#6D184E" d="M3504.724,1801.649c-0.804-0.234-1.617-0.464-2.435-0.693
						C3503.106,1801.185,3503.919,1801.416,3504.724,1801.649z"/>
				</g>
			</g>
			<g>
				<g>
					<path fill="#6D184E" d="M3519.171,1806.328c-0.608-0.221-1.216-0.443-1.834-0.66
						C3517.955,1805.885,3518.562,1806.107,3519.171,1806.328z"/>
				</g>
			</g>
			<g>
				<g>
					<path fill="#6D184E" d="M3512.153,1803.924c-0.71-0.229-1.423-0.458-2.145-0.684
						C3510.73,1803.466,3511.442,1803.695,3512.153,1803.924z"/>
				</g>
			</g>
			<g>
				<g>
					<path fill="#6D184E" d="M3480.14,1795.502c-1.136-0.247-2.298-0.488-3.452-0.732
						C3477.842,1795.013,3479.003,1795.255,3480.14,1795.502z"/>
				</g>
			</g>
			<g>
				<g>
					<path fill="#6D184E" d="M3542.598,1817.131c-0.002-0.001-0.003-0.002-0.004-0.002
						C3542.595,1817.129,3542.596,1817.13,3542.598,1817.131z"/>
				</g>
			</g>
			<g>
				<g>
					<path fill="#6D184E" d="M3537.524,1814.305c-0.209-0.11-0.409-0.225-0.62-0.334
						C3537.115,1814.08,3537.315,1814.195,3537.524,1814.305z"/>
				</g>
			</g>
			<g>
				<g>
					<path fill="#6D184E" d="M3471.22,1793.637c-1.28-0.257-2.593-0.509-3.893-0.762
						C3468.629,1793.128,3469.938,1793.38,3471.22,1793.637z"/>
				</g>
			</g>
			<g>
				<g>
					<path fill="#6D184E" d="M3488.713,1797.452c-1.016-0.242-2.052-0.479-3.084-0.715
						C3486.662,1796.974,3487.696,1797.21,3488.713,1797.452z"/>
				</g>
			</g>
			<g>
				<g>
					<path fill="#6D184E" d="M2996.448,1465.941c-2.269-1.744-4.498-3.317-6.704-4.787
						C2991.95,1462.625,2994.18,1464.195,2996.448,1465.941z"/>
				</g>
			</g>
			<g>
				<g>
					<path fill="#6D184E" d="M3573.146,1897.243c0.04-0.215,0.085-0.432,0.125-0.646
						C3573.231,1896.811,3573.187,1897.028,3573.146,1897.243z"/>
				</g>
			</g>
			<g>
				<g>
					<path fill="#6D184E" d="M3575.472,1874.378c0,0.215,0.003,0.428,0.002,0.643
						C3575.475,1874.806,3575.472,1874.593,3575.472,1874.378z"/>
				</g>
			</g>
			<g>
				<g>
					<path fill="#6D184E" d="M3005.436,1473.463c2.395,2.161,4.825,4.492,7.285,6.97
						C3010.261,1477.955,3007.83,1475.623,3005.436,1473.463z"/>
				</g>
			</g>
			<g>
				<g>
					<path fill="#6D184E" d="M2965.317,1449.672c-1.367-0.364-2.717-0.675-4.054-0.936
						C2962.601,1448.998,2963.95,1449.307,2965.317,1449.672z"/>
				</g>
			</g>
			<g>
				<g>
					<path fill="#6D184E" d="M2958.403,1448.244c-1.3-0.188-2.584-0.332-3.854-0.426
						C2955.819,1447.912,2957.104,1448.057,2958.403,1448.244z"/>
				</g>
			</g>
			<g>
				<g>
					<path fill="#6D184E" d="M2952.071,1447.68c-1.496-0.042-2.978-0.038-4.432,0.042
						C2949.094,1447.642,2950.574,1447.637,2952.071,1447.68z"/>
				</g>
			</g>
			<g>
				<g>
					<path fill="#6D184E" d="M3571.394,1905.365c0.037-0.152,0.077-0.308,0.114-0.46
						C3571.471,1905.057,3571.431,1905.213,3571.394,1905.365z"/>
				</g>
			</g>
			<g>
				<g>
					<path fill="#6D184E" d="M2987.894,1459.95c-2.144-1.366-4.267-2.646-6.35-3.765
						C2983.627,1457.305,2985.75,1458.582,2987.894,1459.95z"/>
				</g>
			</g>
			<g>
				<g>
					<path fill="#6D184E" d="M2980.127,1455.475c-1.716-0.882-3.409-1.678-5.083-2.399
						C2976.718,1453.798,2978.411,1454.592,2980.127,1455.475z"/>
				</g>
			</g>
			<g>
				<g>
					<path fill="#6D184E" d="M2973.062,1452.229c-1.865-0.743-3.704-1.386-5.517-1.938
						C2969.358,1450.845,2971.196,1451.485,2973.062,1452.229z"/>
				</g>
			</g>
			<g>
				<g>
					<path fill="#6D184E" d="M3574.415,1889.466c0.032-0.239,0.066-0.479,0.098-0.717
						C3574.481,1888.987,3574.447,1889.227,3574.415,1889.466z"/>
				</g>
			</g>
			<g>
				<g>
					<path fill="#6D184E" d="M2857.212,2195.721c1.304-38.443-10.181-75.258-24.664-105.843
						c-29.271-61.804-107.357-84.487-164.611-47.091c-0.3,0.195-0.599,0.392-0.896,0.59
						c-128.535,85.352-289.295-13.304-163.084-211.601c126.21-198.297-206.784-256.948-151.426-566.05
						c1.209-6.751,2.598-13.245,3.979-19.746c-13.61-1.142-29.393-0.35-47.794,3.309c-49.483,9.839-49.299-78.265,19.261-171.401
						c-138.644,113.496-156.634,261.31-93.304,248.717c18.401-3.66,34.184-4.452,47.794-3.309c-1.381,6.5-2.77,12.994-3.979,19.745
						c-55.357,309.102,277.636,367.753,151.426,566.05c-126.211,198.297,34.549,296.952,163.084,211.6
						c0.297-0.197,0.596-0.394,0.896-0.59c57.254-37.396,135.341-14.713,164.611,47.092c14.483,30.584,25.968,67.399,24.664,105.842
						c-3.981,117.428-25.783,214.598,133.856,211.146c38.428-0.831,59.343-38.555,59.112-77.305
						C2832.84,2403.991,2853.359,2309.345,2857.212,2195.721z"/>
				</g>
			</g>
			<g>
				<g>
					<path fill="#6D184E" d="M2952.071,1447.68c0.819,0.024,1.646,0.076,2.478,0.138c1.271,0.094,2.555,0.239,3.854,0.426
						c0.945,0.137,1.899,0.304,2.86,0.492c1.337,0.261,2.687,0.572,4.054,0.936c0.741,0.197,1.478,0.39,2.228,0.619
						c1.812,0.553,3.651,1.196,5.517,1.938c0.656,0.261,1.321,0.56,1.982,0.846c1.674,0.721,3.367,1.518,5.083,2.399
						c0.474,0.244,0.939,0.454,1.417,0.71c2.083,1.118,4.206,2.399,6.35,3.765c0.615,0.392,1.23,0.792,1.851,1.205
						c2.206,1.469,4.436,3.043,6.704,4.787c0.385,0.294,0.774,0.626,1.16,0.929c2.111,1.66,4.252,3.451,6.416,5.359
						c0.472,0.415,0.938,0.808,1.411,1.234c2.395,2.16,4.825,4.492,7.285,6.97c0.532,0.536,1.068,1.094,1.604,1.646
						c2.568,2.644,5.158,5.401,7.796,8.405c96.912,110.357,115.253,129.518,233.464,94.367s46.299,181.53,165.671,200.136
						c3.62,0.564,7.184,1.127,10.697,1.691c1.333,0.214,2.625,0.43,3.943,0.645c2.127,0.346,4.266,0.693,6.353,1.042
						c1.693,0.283,3.341,0.57,5.008,0.856c1.668,0.286,3.354,0.57,4.994,0.859c1.819,0.32,3.594,0.646,5.378,0.971
						c1.422,0.259,2.858,0.516,4.259,0.777c1.84,0.344,3.638,0.696,5.44,1.047c1.3,0.253,2.612,0.505,3.893,0.762
						c1.85,0.372,3.66,0.753,5.468,1.133c1.154,0.244,2.316,0.485,3.452,0.732c1.858,0.404,3.681,0.818,5.489,1.235
						c1.032,0.237,2.068,0.473,3.084,0.715c1.846,0.438,3.656,0.888,5.449,1.341c0.92,0.232,1.839,0.466,2.743,0.702
						c1.825,0.477,3.617,0.966,5.384,1.461c0.817,0.229,1.631,0.459,2.435,0.693c1.794,0.519,3.555,1.05,5.285,1.592
						c0.722,0.226,1.435,0.455,2.145,0.684c1.759,0.569,3.49,1.149,5.184,1.744c0.618,0.217,1.226,0.439,1.834,0.66
						c1.734,0.628,3.439,1.269,5.1,1.929c0.5,0.199,0.986,0.403,1.48,0.605c1.717,0.702,3.406,1.417,5.042,2.156
						c0.371,0.168,0.729,0.342,1.094,0.512c1.716,0.793,3.397,1.603,5.018,2.441c0.211,0.109,0.411,0.224,0.62,0.334
						c1.741,0.915,3.44,1.852,5.069,2.824c0.001,0,0.002,0.001,0.004,0.002c15.973,9.532,26.494,21.934,30.754,38.938
						c0.003,0.013,0.007,0.026,0.01,0.039c0.455,1.819,0.828,3.699,1.139,5.625c0.017,0.107,0.039,0.212,0.056,0.32
						c0.292,1.874,0.508,3.808,0.662,5.787c0.013,0.172,0.03,0.341,0.043,0.514c0.14,1.954,0.206,3.965,0.211,6.023
						c0,0.215,0.003,0.428,0.002,0.643c-0.01,2.053-0.088,4.162-0.231,6.322c-0.017,0.238-0.033,0.477-0.05,0.716
						c-0.159,2.174-0.385,4.404-0.68,6.69c-0.031,0.238-0.065,0.479-0.098,0.717c-0.312,2.319-0.69,4.694-1.144,7.131
						c-0.04,0.214-0.085,0.431-0.125,0.646c-0.476,2.493-1.016,5.043-1.639,7.662c-0.037,0.152-0.077,0.308-0.114,0.46
						c-0.65,2.708-1.373,5.479-2.184,8.326c-0.001,0.006-0.003,0.012-0.005,0.018c26.854-15.252,50.185-35.384,68.665-60.528
						c39.27-109.757-23.199-126.904-142.571-145.509c-119.373-18.606-47.46-235.287-165.672-200.137
						c-118.211,35.15-136.552,15.99-233.464-94.367c-94.303-107.389-143.92,19.92-146.521,26.85
						c-0.738,2.543-1.357,5.129-2.009,7.704c0.003,0,0.005,0,0.007,0C2949.094,1447.642,2950.575,1447.638,2952.071,1447.68z"/>
				</g>
			</g>
			<g>
				<g>
					<path fill="#6D184E" d="M3575.242,1881.343c0.144-2.16,0.222-4.27,0.231-6.322
						C3575.464,1877.074,3575.387,1879.182,3575.242,1881.343z"/>
				</g>
			</g>
			<g>
				<g>
					<path fill="#6D184E" d="M3575.218,1867.841c-0.154-1.979-0.37-3.913-0.662-5.787
						C3574.848,1863.928,3575.063,1865.86,3575.218,1867.841z"/>
				</g>
			</g>
			<g>
				<g>
					<path fill="#6D184E" d="M3574.513,1888.749c0.295-2.286,0.521-4.517,0.68-6.69
						C3575.033,1884.233,3574.808,1886.462,3574.513,1888.749z"/>
				</g>
			</g>
			<g>
				<g>
					<path fill="#6D184E" d="M3574.5,1861.734c-0.311-1.927-0.684-3.807-1.139-5.625
						C3573.815,1857.928,3574.19,1859.807,3574.5,1861.734z"/>
				</g>
			</g>
			<g>
				<g>
					<path fill="#6D184E" d="M3530.793,1811.018c-1.636-0.739-3.325-1.454-5.042-2.156
						C3527.468,1809.564,3529.157,1810.278,3530.793,1811.018z"/>
				</g>
			</g>
			<g>
				<g>
					<path fill="#6D184E" d="M3542.594,1817.128c-1.629-0.972-3.328-1.909-5.069-2.824
						C3539.266,1815.22,3540.965,1816.156,3542.594,1817.128z"/>
				</g>
			</g>
			<g>
				<g>
					<path fill="#6D184E" d="M3536.904,1813.971c-1.62-0.838-3.302-1.648-5.018-2.441
						C3533.602,1812.324,3535.285,1813.131,3536.904,1813.971z"/>
				</g>
			</g>
			<g>
				<g>
					<path fill="#6D184E" d="M3569.21,1913.691c0.811-2.848,1.533-5.618,2.184-8.326
						C3570.743,1908.074,3570.021,1910.844,3569.21,1913.691z"/>
				</g>
			</g>
			<g>
				<g>
					<path fill="#6D184E" d="M3573.271,1896.597c0.453-2.437,0.832-4.812,1.144-7.131
						C3574.103,1891.786,3573.725,1894.159,3573.271,1896.597z"/>
				</g>
			</g>
			<g>
				<g>
					<path fill="#6D184E" d="M3571.508,1904.905c0.623-2.619,1.163-5.169,1.639-7.662
						C3572.671,1899.736,3572.131,1902.286,3571.508,1904.905z"/>
				</g>
			</g>
			<g>
				<g>
					<path fill="#6D184E" d="M2975.044,1453.075c-0.661-0.286-1.326-0.585-1.982-0.846
						C2973.718,1452.49,2974.382,1452.791,2975.044,1453.075z"/>
				</g>
			</g>
			<g>
				<g>
					<path fill="#6D184E" d="M2961.264,1448.736c-0.961-0.188-1.915-0.354-2.86-0.492
						C2959.348,1448.381,2960.303,1448.548,2961.264,1448.736z"/>
				</g>
			</g>
			<g>
				<g>
					<path fill="#6D184E" d="M2967.545,1450.291c-0.75-0.229-1.486-0.422-2.228-0.619
						C2966.058,1449.869,2966.796,1450.062,2967.545,1450.291z"/>
				</g>
			</g>
			<g>
				<g>
					<path fill="#6D184E" d="M2989.744,1461.154c-0.62-0.413-1.235-0.812-1.851-1.205
						C2988.509,1460.341,2989.125,1460.742,2989.744,1461.154z"/>
				</g>
			</g>
			<g>
				<g>
					<path fill="#6D184E" d="M2981.544,1456.185c-0.478-0.256-0.943-0.466-1.417-0.71
						C2980.601,1455.718,2981.066,1455.929,2981.544,1456.185z"/>
				</g>
			</g>
			<g>
				<g>
					<path fill="#6D184E" d="M3524.271,1808.257c-1.66-0.66-3.365-1.301-5.1-1.929
						C3520.905,1806.957,3522.61,1807.597,3524.271,1808.257z"/>
				</g>
			</g>
			<g>
				<g>
					<polygon fill="#6D184E" points="2947.64,1447.722 2947.633,1447.722 2947.633,1447.722 					"/>
				</g>
			</g>
			<g>
				<g>
					<path fill="#6D184E" d="M2997.608,1466.87c-0.386-0.303-0.775-0.634-1.16-0.929
						C2996.832,1466.235,2997.223,1466.567,2997.608,1466.87z"/>
				</g>
			</g>
			<g>
				<g>
					<path fill="#6D184E" d="M3542.598,1817.131c15.967,9.539,26.499,21.929,30.754,38.938
						C3569.092,1839.065,3558.57,1826.663,3542.598,1817.131z"/>
				</g>
			</g>
			<g>
				<g>
					<path fill="#6D184E" d="M3012.721,1480.433c0.532,0.536,1.068,1.095,1.604,1.646
						C3013.789,1481.527,3013.253,1480.969,3012.721,1480.433z"/>
				</g>
			</g>
			<g>
				<g>
					<path fill="#6D184E" d="M2954.549,1447.818c-0.831-0.062-1.658-0.114-2.478-0.138
						C2952.89,1447.704,2953.718,1447.756,2954.549,1447.818z"/>
				</g>
			</g>
			<g>
				<g>
					<path fill="#6D184E" d="M3575.261,1868.354c0.139,1.954,0.207,3.964,0.211,6.023
						C3575.467,1872.319,3575.4,1870.308,3575.261,1868.354z"/>
				</g>
			</g>
			<g>
				<g>
					<path fill="#6D184E" d="M3485.629,1796.737c-1.809-0.417-3.631-0.831-5.489-1.235
						C3481.998,1795.906,3483.819,1796.32,3485.629,1796.737z"/>
				</g>
			</g>
			<g>
				<g>
					<path fill="#6D184E" d="M3494.162,1798.793c-1.793-0.453-3.604-0.903-5.449-1.341
						C3490.559,1797.891,3492.369,1798.339,3494.162,1798.793z"/>
				</g>
			</g>
			<g>
				<g>
					<path fill="#6D184E" d="M3005.436,1473.463c-0.474-0.427-0.939-0.819-1.411-1.234
						C3004.496,1472.643,3004.963,1473.036,3005.436,1473.463z"/>
				</g>
			</g>
			<g>
				<g>
					<path fill="#6D184E" d="M3510.009,1803.241c-1.73-0.542-3.491-1.073-5.285-1.592
						C3506.517,1802.168,3508.278,1802.699,3510.009,1803.241z"/>
				</g>
			</g>
			<g>
				<g>
					<path fill="#6D184E" d="M3517.337,1805.668c-1.693-0.594-3.425-1.175-5.184-1.744
						C3513.912,1804.494,3515.644,1805.073,3517.337,1805.668z"/>
				</g>
			</g>
			<g>
				<g>
					<path fill="#6D184E" d="M3502.289,1800.956c-1.767-0.495-3.559-0.984-5.384-1.461
						C3498.73,1799.973,3500.522,1800.46,3502.289,1800.956z"/>
				</g>
			</g>
			<g>
				<g>
					<path fill="#6D184E" d="M3476.688,1794.77c-1.808-0.38-3.618-0.762-5.468-1.133
						C3473.069,1794.009,3474.88,1794.39,3476.688,1794.77z"/>
				</g>
			</g>
			<g>
				<g>
					<path fill="#6D184E" d="M3447.256,1789.221c-1.667-0.286-3.314-0.573-5.008-0.856
						C3443.941,1788.648,3445.589,1788.935,3447.256,1789.221z"/>
				</g>
			</g>
			<g>
				<g>
					<path fill="#6D184E" d="M3435.896,1787.323c-1.318-0.215-2.61-0.431-3.943-0.645
						C3433.285,1786.893,3434.577,1787.108,3435.896,1787.323z"/>
				</g>
			</g>
			<g>
				<g>
					<path fill="#6D184E" d="M3457.628,1791.05c-1.784-0.324-3.559-0.651-5.378-0.971
						C3454.069,1790.4,3455.844,1790.726,3457.628,1791.05z"/>
				</g>
			</g>
			<g>
				<g>
					<path fill="#6D184E" d="M3467.327,1792.875c-1.803-0.351-3.601-0.703-5.44-1.047
						C3463.727,1792.172,3465.524,1792.524,3467.327,1792.875z"/>
				</g>
			</g>
			<g>
				<g>
					<path fill="#6D184E" d="M3800.669,2414.354c-144.456,105.845-142.547,35.945-311.137,25.306l0.021-0.02
						c-0.357-0.025-2.52-0.146-3.25-0.189c-317.405-20.608-219.319,225.826-216.023,386.162
						c3.306,160.891-140.653,108.082-140.653,108.082s74.581,60.662,152.52,26.876c77.939-33.785,46.974-239.997,61.918-354.698
						c14.942-114.7,62.521-89.378,62.521-89.378c153.839,7.431,172.713,83.124,320.041-24.826
						c149.738-109.713,228.552-183.125,292.289-149.735c29.529,15.469,45.525-30.447,54.195-84.186
						C4012.562,2246.483,3935.279,2315.725,3800.669,2414.354z"/>
				</g>
			</g>
		</g>
		<g>
			<g>
				<g>
					<g>
						<path fill="#0DF4FF" d="M2637.732,1398.827c-15.576,2.579-26.112,17.294-23.533,32.87l15.906,96.095
							c2.578,15.576,17.294,26.112,32.87,23.533c15.575-2.578,26.111-17.294,23.533-32.869l-15.907-96.095
							C2668.023,1406.784,2653.308,1396.249,2637.732,1398.827z"/>
					</g>
				</g>
				<g>
					<g>
						<path fill="#6D184E" d="M2658.285,1562.221c-18.771,0-35.383-13.599-38.55-32.71l-15.905-96.099
							c-1.704-10.302,0.703-20.649,6.783-29.14c6.078-8.491,15.099-14.107,25.401-15.811c21.282-3.521,41.436,10.918,44.956,32.178
							l15.906,96.104c1.704,10.302-0.703,20.649-6.782,29.14c-6.079,8.486-15.101,14.102-25.403,15.806
							C2662.541,1562.045,2660.397,1562.221,2658.285,1562.221z M2642.409,1408.949c-0.977,0-1.966,0.083-2.962,0.244
							c-4.763,0.792-8.936,3.389-11.745,7.314c-2.811,3.926-3.924,8.711-3.135,13.477l15.905,96.093
							c1.626,9.824,10.938,16.47,20.787,14.878c4.763-0.791,8.935-3.388,11.745-7.309c2.81-3.926,3.924-8.711,3.135-13.477
							l-15.906-96.098C2658.771,1415.239,2651.088,1408.949,2642.409,1408.949z"/>
					</g>
				</g>
			</g>
			<g>
				<g>
					<g>
						<path fill="#0DF4FF" d="M2989.751,1220.359c-10.917,11.405-10.521,29.5,0.884,40.416l70.363,67.352
							c11.405,10.917,29.5,10.521,40.416-0.884c10.917-11.405,10.521-29.499-0.884-40.416l-70.363-67.352
							C3018.762,1208.559,3000.668,1208.955,2989.751,1220.359z"/>
					</g>
				</g>
				<g>
					<g>
						<path fill="#6D184E" d="M3080.754,1346.552c-9.721,0-19.458-3.594-27.021-10.83l-70.366-67.354
							c-15.569-14.907-16.111-39.702-1.209-55.273l0,0c7.222-7.544,16.948-11.827,27.388-12.056
							c10.364-0.092,20.345,3.623,27.891,10.845l70.361,67.348c7.545,7.222,11.824,16.948,12.054,27.388
							c0.227,10.439-3.623,20.347-10.845,27.886C3101.34,1342.519,3091.054,1346.552,3080.754,1346.552z M2997.344,1227.626
							c-6.891,7.202-6.642,18.667,0.559,25.556l70.363,67.354c7.195,6.89,18.665,6.636,25.557-0.562
							c3.34-3.486,5.12-8.066,5.015-12.89c-0.107-4.829-2.087-9.327-5.575-12.667l-70.362-67.349
							c-3.486-3.339-8.179-5.195-12.893-5.014C3005.18,1222.157,3000.681,1224.14,2997.344,1227.626L2997.344,1227.626z"/>
					</g>
				</g>
			</g>
			<g>
				<g>
					<g>
						<path fill="#0DF4FF" d="M3460.17,1588.542c-14.197,6.907-20.106,24.014-13.199,38.21l42.613,87.586
							c6.906,14.196,24.014,20.105,38.21,13.198c14.196-6.907,20.105-24.014,13.198-38.21l-42.612-87.586
							C3491.473,1587.544,3474.366,1581.636,3460.17,1588.542z"/>
					</g>
				</g>
				<g>
					<g>
						<path fill="#6D184E" d="M3515.354,1740.922c-14.505,0-28.46-8.091-35.22-21.983l-42.615-87.588
							c-4.567-9.39-5.207-20-1.797-29.868c3.411-9.873,10.462-17.822,19.853-22.393c9.389-4.565,19.991-5.214,29.864-1.797
							c9.871,3.408,17.823,10.459,22.391,19.854l42.614,87.579c9.429,19.384,1.331,42.832-18.049,52.26
							C3526.901,1739.657,3521.083,1740.922,3515.354,1740.922z M3472.663,1596.161c-2.703,0-5.391,0.615-7.894,1.832
							c0,0-0.002,0-0.002,0.004c-4.344,2.109-7.603,5.786-9.178,10.347c-1.577,4.565-1.281,9.467,0.83,13.808l42.615,87.588
							c4.36,8.97,15.202,12.71,24.162,8.345c8.96-4.36,12.705-15.2,8.345-24.165l-42.614-87.578
							c-2.112-4.345-5.789-7.603-10.352-9.18C3476.643,1596.493,3474.647,1596.161,3472.663,1596.161z M3460.17,1588.544h0.05
							H3460.17z"/>
					</g>
				</g>
			</g>
			<g>
				<g>
					<g>
						<path fill="#0DF4FF" d="M2862.668,1908.099c-15.723-1.426-29.624,10.164-31.049,25.887l-8.797,97.004
							c-1.426,15.724,10.163,29.624,25.887,31.05c15.723,1.426,29.624-10.163,31.05-25.887l8.796-97.004
							C2889.98,1923.426,2878.391,1909.525,2862.668,1908.099z"/>
					</g>
				</g>
				<g>
					<g>
						<path fill="#6D184E" d="M2851.317,2072.67c-1.177,0-2.363-0.054-3.559-0.161c-10.401-0.947-19.811-5.884-26.497-13.901
							c-6.688-8.022-9.849-18.164-8.906-28.564l8.796-97.007c1.948-21.47,21.006-37.319,42.466-35.405
							c10.4,0.947,19.811,5.884,26.498,13.901c6.687,8.023,9.848,18.165,8.905,28.565l-8.797,97.001
							C2888.386,2057.377,2871.293,2072.67,2851.317,2072.67z M2860.054,1918.49c-4.217,0-8.265,1.46-11.543,4.194
							c-3.709,3.091-5.989,7.442-6.427,12.246l-8.796,97.007c-0.438,4.81,1.025,9.502,4.118,13.208
							c3.091,3.711,7.441,5.991,12.251,6.426c9.896,0.967,18.735-6.44,19.634-16.367l8.797-97.002
							c0.437-4.809-1.025-9.502-4.118-13.208c-3.092-3.711-7.442-5.991-12.251-6.426
							C2861.161,1918.515,2860.607,1918.49,2860.054,1918.49z"/>
					</g>
				</g>
			</g>
			<g>
				<g>
					<g>
						<path fill="#FFD00D" d="M2687.661,1775.533c-8.401-13.367-26.047-17.391-39.412-8.99l-82.466,51.834
							c-13.366,8.401-17.391,26.047-8.989,39.413c8.401,13.367,26.047,17.391,39.413,8.99l82.466-51.834
							C2692.039,1806.544,2696.063,1788.899,2687.661,1775.533z"/>
					</g>
				</g>
				<g>
					<g>
						<path fill="#6D184E" d="M2581.059,1881.664c-13.01,0-25.744-6.475-33.161-18.281c-5.56-8.843-7.339-19.316-5.018-29.497
							c2.322-10.186,8.47-18.853,17.312-24.405l82.463-51.836c18.26-11.469,42.435-5.947,53.901,12.295l0,0
							c11.474,18.247,5.957,42.427-12.292,53.901l-82.463,51.836C2595.354,1879.73,2588.163,1881.664,2581.059,1881.664z
							 M2663.43,1772.675c-3.284,0-6.609,0.894-9.59,2.764l-82.464,51.835c-4.089,2.569-6.931,6.577-8.005,11.285
							c-1.072,4.707-0.249,9.551,2.321,13.643c5.301,8.433,16.479,10.981,24.925,5.684l82.461-51.836
							c8.438-5.308,10.988-16.484,5.686-24.927l0,0C2675.334,1775.668,2669.445,1772.675,2663.43,1772.675z"/>
					</g>
				</g>
			</g>
			<g>
				<g>
					<g>
						<path fill="#0DF4FF" d="M3423.389,2302.841c-8.402-13.366-26.047-17.391-39.414-8.989l-82.465,51.834
							c-13.366,8.402-17.391,26.047-8.989,39.414c8.401,13.366,26.047,17.391,39.413,8.988l82.465-51.834
							C3427.766,2333.853,3431.79,2316.207,3423.389,2302.841z"/>
					</g>
				</g>
				<g>
					<g>
						<path fill="#6D184E" d="M3316.794,2408.993c-2.915,0-5.853-0.327-8.764-0.991c-10.185-2.319-18.852-8.472-24.408-17.314
							c-5.557-8.838-7.339-19.312-5.017-29.497c2.324-10.181,8.472-18.848,17.314-24.399l82.461-51.836
							c8.84-5.566,19.312-7.349,29.499-5.02c10.181,2.324,18.848,8.472,24.404,17.314c11.473,18.247,5.957,42.427-12.292,53.901
							l-82.466,51.831C3331.215,2406.952,3324.069,2408.993,3316.794,2408.993z M3399.149,2299.97c-3.361,0-6.665,0.947-9.582,2.778
							l-82.464,51.836c-4.089,2.568-6.931,6.577-8.005,11.284s-0.249,9.546,2.319,13.633c2.57,4.092,6.577,6.934,11.284,8.008
							c4.703,1.079,9.548,0.255,13.638-2.319l82.466-51.831c8.438-5.308,10.988-16.484,5.686-24.927
							c-2.57-4.086-6.577-6.929-11.286-8.002C3401.857,2300.121,3400.5,2299.97,3399.149,2299.97z"/>
					</g>
				</g>
			</g>
			<g>
				<g>
					<g>
						<path fill="#FFD00D" d="M3552.024,2023.969c-14.689,5.786-21.907,22.383-16.122,37.072l35.694,90.627
							c5.786,14.688,22.383,21.906,37.072,16.121c14.688-5.785,21.906-22.383,16.121-37.072l-35.694-90.627
							C3583.311,2025.401,3566.714,2018.184,3552.024,2023.969z"/>
					</g>
				</g>
				<g>
					<g>
						<path fill="#6D184E" d="M3598.24,2180.287c-15.6,0-30.367-9.398-36.422-24.766l-35.693-90.63
							c-7.9-20.054,1.989-42.798,22.046-50.703l0,0c9.719-3.828,20.344-3.638,29.919,0.522c9.575,4.165,16.958,11.812,20.784,21.528
							l35.693,90.625c3.828,9.717,3.643,20.342-0.522,29.917c-4.163,9.575-11.81,16.958-21.523,20.786
							C3607.834,2179.413,3602.995,2180.287,3598.24,2180.287z M3555.876,2033.749c-4.492,1.768-8.027,5.181-9.954,9.609
							c-1.924,4.424-2.012,9.336-0.241,13.828l35.693,90.63c3.649,9.272,14.175,13.848,23.442,10.19
							c4.494-1.768,8.027-5.181,9.953-9.609c1.928-4.424,2.012-9.336,0.242-13.828l-35.693-90.625
							c-1.771-4.497-5.184-8.032-9.612-9.956C3565.285,2032.06,3560.368,2031.972,3555.876,2033.749L3555.876,2033.749z"/>
					</g>
				</g>
			</g>
			<g>
				<g>
					<g>
						<path fill="#FFD00D" d="M3289.517,1351.628c-4.381,15.167,4.361,31.014,19.529,35.396l93.576,27.033
							c15.167,4.382,31.014-4.361,35.396-19.529c4.382-15.167-4.361-31.014-19.529-35.396l-93.575-27.033
							C3309.745,1327.718,3293.898,1336.461,3289.517,1351.628z"/>
					</g>
				</g>
				<g>
					<g>
						<path fill="#6D184E" d="M3410.536,1425.693c-3.581,0-7.222-0.499-10.83-1.539l-93.579-27.031
							c-20.708-5.986-32.688-27.705-26.709-48.408l0,0c5.984-20.708,27.7-32.671,48.408-26.713l93.579,27.036
							c10.032,2.9,18.335,9.527,23.382,18.672c5.044,9.14,6.226,19.702,3.327,29.736
							C3443.173,1414.545,3427.504,1425.693,3410.536,1425.693z M3299.613,1354.545c-2.766,9.575,2.776,19.615,12.352,22.383
							l93.574,27.031c9.567,2.783,19.616-2.779,22.383-12.344c1.338-4.643,0.793-9.526-1.541-13.75
							c-2.331-4.228-6.169-7.295-10.807-8.633l-93.58-27.036C3312.421,1339.428,3302.377,1344.97,3299.613,1354.545
							L3299.613,1354.545z"/>
					</g>
				</g>
			</g>
			<g>
				<g>
					<g>
						<path fill="#0DF4FF" d="M3641.777,1828.439c-4.382,15.167,4.361,31.014,19.529,35.396l93.576,27.033
							c15.167,4.382,31.014-4.361,35.395-19.529c4.382-15.167-4.361-31.014-19.528-35.396l-93.575-27.033
							C3662.006,1804.529,3646.159,1813.272,3641.777,1828.439z"/>
					</g>
				</g>
				<g>
					<g>
						<path fill="#6D184E" d="M3762.797,1902.504c-3.584,0-7.219-0.498-10.829-1.538l-93.58-27.031
							c-20.708-5.986-32.688-27.705-26.709-48.408l0,0c5.986-20.708,27.706-32.671,48.408-26.714l93.579,27.032
							c20.711,5.986,32.69,27.705,26.707,48.408C3795.434,1891.352,3779.765,1902.504,3762.797,1902.504z M3651.874,1831.356
							c-2.766,9.575,2.776,19.615,12.352,22.383l93.574,27.031c9.58,2.778,19.616-2.778,22.38-12.348
							c2.769-9.575-2.773-19.615-12.349-22.383l-93.576-27.031C3664.696,1816.244,3654.641,1821.781,3651.874,1831.356
							L3651.874,1831.356z"/>
					</g>
				</g>
			</g>
			<g>
				<g>
					<g>
						<path fill="#FFD52B" d="M3826.076,2299.264c10.719,11.591,28.804,12.297,40.395,1.578l71.511-66.132
							c11.591-10.72,12.298-28.804,1.578-40.396c-10.719-11.59-28.804-12.297-40.395-1.578l-71.511,66.133
							C3816.063,2269.588,3815.356,2287.673,3826.076,2299.264z"/>
					</g>
				</g>
				<g>
					<g>
						<path fill="#6D184E" d="M3847.079,2318.93c-10.526,0-21.025-4.214-28.718-12.534c-14.637-15.82-13.667-40.605,2.158-55.244
							l71.509-66.128c7.666-7.094,17.622-10.781,28.071-10.366c10.435,0.41,20.085,4.854,27.175,12.524
							c14.634,15.825,13.665,40.605-2.158,55.244l-71.509,66.133C3866.101,2315.502,3856.579,2318.93,3847.079,2318.93z
							 M3918.557,2195.648c-4.561,0-8.89,1.689-12.256,4.805l-71.509,66.128c-7.317,6.768-7.767,18.228-1.001,25.547
							c6.772,7.319,18.229,7.769,25.547,1.001l71.507-66.133c7.316-6.768,7.766-18.228,0.998-25.547
							c-3.276-3.545-7.739-5.601-12.562-5.791C3919.037,2195.653,3918.796,2195.648,3918.557,2195.648z"/>
					</g>
				</g>
			</g>
			<g>
				<g>
					<g>
						<path fill="#FFD52B" d="M3634.443,1625.914c2.238,15.628,16.722,26.482,32.35,24.243l96.418-13.811
							c15.629-2.239,26.482-16.722,24.243-32.35c-2.238-15.628-16.722-26.482-32.35-24.243l-96.418,13.811
							C3643.059,1595.803,3632.205,1610.286,3634.443,1625.914z"/>
					</g>
				</g>
				<g>
					<g>
						<path fill="#6D184E" d="M3662.653,1660.961c-8.392,0-16.523-2.69-23.359-7.817c-8.357-6.259-13.774-15.405-15.254-25.742
							c-3.057-21.333,11.816-41.182,33.154-44.243l96.421-13.809c10.333-1.464,20.63,1.147,28.986,7.417
							c8.357,6.26,13.777,15.406,15.257,25.743c3.054,21.333-11.819,41.181-33.154,44.243l-96.421,13.809
							C3666.403,1660.829,3664.521,1660.961,3662.653,1660.961z M3759.198,1589.97c-0.861,0-1.73,0.063-2.603,0.19l-96.42,13.809
							c-9.866,1.411-16.744,10.59-15.33,20.454l0,0c0.686,4.78,3.19,9.009,7.053,11.904c3.865,2.896,8.628,4.116,13.404,3.423
							l96.42-13.809c9.863-1.411,16.741-10.59,15.33-20.454c-0.687-4.78-3.191-9.009-7.054-11.904
							C3766.838,1591.215,3763.078,1589.97,3759.198,1589.97z"/>
					</g>
				</g>
			</g>
			<g>
				<g>
					<g>
						<path fill="#FFD52B" d="M3008.304,2172.991c10.976,11.349,29.071,11.651,40.42,0.676l70.016-67.712
							c11.349-10.976,11.651-29.072,0.677-40.42c-10.976-11.35-29.071-11.652-40.42-0.677l-70.017,67.713
							C2997.631,2143.547,2997.328,2161.643,3008.304,2172.991z"/>
					</g>
				</g>
				<g>
					<g>
						<path fill="#6D184E" d="M3028.869,2192.216c-0.225,0-0.447-0.005-0.672-0.005c-10.438-0.176-20.188-4.404-27.448-11.914
							h-0.003c-14.982-15.498-14.567-40.298,0.928-55.278l70.015-67.714c7.505-7.257,17.314-11.334,27.832-10.987
							c10.442,0.171,20.19,4.405,27.451,11.914c14.983,15.493,14.568,40.293-0.925,55.278l-70.02,67.71
							C3048.684,2188.324,3039.062,2192.216,3028.869,2192.216z M3015.858,2165.688c6.929,7.158,18.394,7.354,25.557,0.425
							l70.02-67.71c7.163-6.929,7.354-18.398,0.429-25.562c-3.36-3.472-7.867-5.43-12.694-5.508
							c-4.885-0.21-9.396,1.714-12.865,5.078l-70.018,67.715C3009.12,2147.055,3008.93,2158.52,3015.858,2165.688L3015.858,2165.688
							z"/>
					</g>
				</g>
			</g>
			<g>
				<g>
					<g>
						<path fill="#FFD52B" d="M2774.16,1274.844c12.933-9.056,16.075-26.879,7.02-39.812l-55.868-79.787
							c-9.056-12.932-26.88-16.075-39.812-7.02c-12.933,9.056-16.075,26.879-7.02,39.812l55.868,79.787
							C2743.404,1280.756,2761.228,1283.899,2774.16,1274.844z"/>
					</g>
				</g>
				<g>
					<g>
						<path fill="#6D184E" d="M2757.846,1290.531c-2.28,0-4.577-0.195-6.87-0.601c-10.285-1.816-19.245-7.524-25.235-16.074
							l-55.868-79.795c-5.988-8.549-8.291-18.925-6.477-29.209c1.813-10.283,7.521-19.248,16.076-25.234
							c8.553-5.986,18.931-8.296,29.212-6.479c10.286,1.816,19.245,7.524,25.236,16.074l55.867,79.794
							c5.988,8.55,8.291,18.926,6.477,29.209c-1.813,10.283-7.521,19.248-16.076,25.235
							C2773.539,1288.105,2765.795,1290.531,2757.846,1290.531z M2701.859,1153.559c-3.677,0-7.258,1.123-10.328,3.276
							c-3.959,2.769-6.598,6.914-7.436,11.665c-0.84,4.756,0.225,9.556,2.993,13.506l55.867,79.795
							c2.769,3.95,6.914,6.592,11.667,7.426c4.759,0.854,9.554-0.225,13.506-2.993c0.003,0,0.003,0,0.003,0
							c3.955-2.769,6.594-6.915,7.432-11.666c0.84-4.755-0.225-9.555-2.992-13.505l-55.868-79.795
							c-2.769-3.95-6.914-6.592-11.667-7.427C2703.974,1153.651,2702.912,1153.559,2701.859,1153.559z"/>
					</g>
				</g>
			</g>
		</g>
	</g>
	<g opacity="0.3">
		<g>
			<ellipse fill="#6D184E" cx="3114.075" cy="3411.042" rx="927.534" ry="108.3"/>
		</g>
	</g>
</g>
<g>
	<path fill="#003459" d="M1953.9,1919.098h211.62v348.832H1953.9v360.438h-423.24V2267.93H684.181v-293.01l669.737-1099.96H1953.9
		V1919.098z M1530.66,1919.098v-690.653l-402.297,690.653H1530.66z"/>
</g>
<g>
	<path fill="#003459" d="M5488.183,1929.589h211.619v348.833h-211.619v360.438h-423.24v-360.438h-846.479v-293.01L4888.2,885.451
		h599.982V1929.589z M5064.942,1929.589v-690.653l-402.297,690.653H5064.942z"/>
</g>
</svg>
