<svg id="Capa_1" data-name="Capa 1" xmlns="http://www.w3.org/2000/svg" xmlns:xlink="http://www.w3.org/1999/xlink" viewBox="0 0 131.64 49.05"><defs><style>.cls-1{fill:none;}.cls-2{clip-path:url(#clip-path);}</style><clipPath id="clip-path"><rect class="cls-1" width="131.64" height="49.05"/></clipPath></defs><title>Logo-Header</title><g class="cls-2"><path d="M112.47,13.14s1.41-1,1.58-1.65l.48-1.84s.21-.67-.67-.37a15.14,15.14,0,0,0-3.53,2c-2.18,1.37-10.08,9.32-6.63,12.09.71.82,3.84,1.1,5.72,1.27.2.05.83.24.38.76a32,32,0,0,1-4.55,2.55c-1.71.71-2.39,1-3.24,1.3s-2.48.91-1.76,1.32a5.87,5.87,0,0,0,2,.69,6,6,0,0,0,3.06-.45s2.59-1.11,3.42-1.58c2.4-1.37,5.48-3.42,5.59-4.84a1.47,1.47,0,0,0-.67-1.55c-2.17-1.22-4.22-.82-7.34-.76a.56.56,0,0,1-.41-.1c-.13-.12-.07-.41-.07-.41.69-3.46,3.29-5.93,6.67-8.38"/><path d="M24.43,3.84C20-.88,12.61-.48,6.09,1s-8.57,3.18-2.34,3.2A19.6,19.6,0,0,0,7.87,2.93a34.89,34.89,0,0,1,3.81-1c4.25-.71,7.32,0,9.85,2.22A9.6,9.6,0,0,1,24.8,9.54c.88,3.48.61,7.72-.09,12.54-.24,1.58-1.94,9.19-2.21,10.55-.31,2.8-.43,3.57,1.54,4.86.76.33,1.41.25,2.45-1.45,1.19-1.88,1.71-2.8,2.48-4,8.38-15.19,14.5-22.68,14.5-22.68a4.85,4.85,0,0,1,.72-.77c.38-.22.48,0,.58.09.42.7-.63,4.5-.87,6-.18.89-1,5.81-1.47,7.75-.45,2.77-1.11,3.55.79,5.39a1,1,0,0,0,1.44-.21,137.44,137.44,0,0,1,11-16.9c.28-.46.65-.13.39.78-.76,3.77-3.14,14.17-3.36,19.22a72.91,72.91,0,0,0,.84,15.65,11.71,11.71,0,0,0,.56,2.13c.82,1.33,1.95-.14,2.56-1.16a2.93,2.93,0,0,0,.11-2.3c-1.12-4.9-2-9.2-1.78-13.76A65.26,65.26,0,0,1,56.48,22c.22-1,2.23-9.48,2.46-10.34.56-2.09,1.29-3.08-1-5.29-1-.88-1.8-.43-2.42.47A102.5,102.5,0,0,0,45.25,22s-.41.31-.25-.38c.17-.51.63-3.66.83-4.46.27-1.22.7-3.31,1-4.41.7-2.62,1.62-3.86-1.32-6.65a1.74,1.74,0,0,0-2.6,0l-.51.56A185.22,185.22,0,0,0,28.78,27.1c-.84,1.56-1.57,2.71-2.48,4.43,0,0-.47,1-.91,1.72s-1,1.14-.12-2.11c.41-1.57,6-20.84-.84-27.3"/><path d="M119.65,27c-.18.21-1.83,2.08-2.49,1.77-.31-.14-.33-.64-.11-1.59,0,0,1.2-3.62,6.17-9.6,0,0,.76-.83,1.56-1.59,1.47-1.4,1.86-1.47,2-1.36s.17.38,0,.91c0,.1-1.37,5-7.13,11.46M131,10.66c.37-.67.77-1.42.55-1.65s-1.27,0-3,.78c-5.07,2.77-8.85,7.72-11.12,11.39-1.73,3-4.09,7.2-1.34,10.15a1.82,1.82,0,0,0,2.19.27,17.5,17.5,0,0,0,5.34-5.55l.73-1a.08.08,0,0,1,.1,0,.08.08,0,0,1,.06.08s1.07,5.25,1.79,6.31c.39.6,1.42.42,1.81.27a5.54,5.54,0,0,0,1.92-1c.6-.7-.67-1.72-.68-1.73-1.19-.66-2.31-4.57-2.31-4.64a12.83,12.83,0,0,1,.86-3.82c.49-1.28.66-1.67,1-2.46l.45-1,.13-.3c.47-1.08,1.27-2.89.36-3.3-.76-.44-1.07-.71-1.06-.94s.32-.34.68-.48a2.37,2.37,0,0,0,1.28-.85c.07-.16.16-.31.24-.47"/><path d="M96.17,31l0,0c.43.51.77.74,1,.72s.42-.2.65-.6c.5-.82,2.23-5.77,2.54-6.76a25.07,25.07,0,0,0,.6-2.53l.07-.41c.29-1.79.62-3.82-.18-5.06A3.5,3.5,0,0,0,99,15.3l-.31-.1a.67.67,0,0,0-.71.14c-.06.05-.25.28-.11.83A6.1,6.1,0,0,1,98,17.9v.16l0,1.53c-.06,3.4-2.13,8.4-2.15,8.46-1,2,.28,2.88.33,2.92"/><path d="M100.36,11.42a.33.33,0,0,0,.27-.16l.08-.18c.77-1.64,1.82-3.89-.64-5a2.38,2.38,0,0,0-1.52-.22.83.83,0,0,0-.49.43c-.34.74.15,1.82.47,2.53v0c.19.41.31.74.42,1a3.2,3.2,0,0,0,.76,1.35.76.76,0,0,0,.65.2"/><path d="M71.05,16.57s-1.11,4.89-6.76,11.62c0,0-3.21,3.92-2.44.32,0,0,1-3.56,5.86-9.74,0,0,4.32-5,3.34-2.2m5.19,6.52c-3.72,5.09-4.44,5.24-4.45,2.26a12.63,12.63,0,0,1,.74-3.81c.6-1.74.68-1.85,1.35-3.53.41-1,1.44-3.26.34-3.71-2.49-1.33.19-.91.86-2.19.78-1.6,2.12-3.55-2.35-1.38-4.71,2.74-8.32,7.43-10.8,11.71-1.63,3.07-3.91,7.36-1,10.29a1.91,1.91,0,0,0,2.31.21c3.16-2.2,4.11-4.09,5.9-6.77,0,0-.12,3.81,1.38,4.68,1.29.75,1.67.86,2.43.63s4-5,4.7-6c1.94-2.63,4-5.93,5.48-6.28.22-.08.38.16.46.3s1.07,2.07-.21,7.26c-.41,1.67-1.43,2.49-.11,3.8a4.93,4.93,0,0,0,.83.73A.74.74,0,0,0,85.28,31l.15-.33c.26-1.26,2.91-8.18,2.91-8.18,2.72-6.14,7-6.82,7-6.82.46-.2,1.22-.4,1.55-1,.82-1.58,2-3.7-2.51-1.66-4.61,2.43-5.32,3.49-7.93,7.7-.38-1.9-1.41-4.93-2.54-4.9a3.86,3.86,0,0,0-2.34.85s-2.06,1.56-5.3,6.42"/></g></svg>